PathFileType	4	(X/Y/Z)	C:/Users/opensim2020/Desktop/walking_exp_matlab/subject03_walking06_straight_02.trc	
DataRate	CameraRate	NumFrames	NumMarkers	Units	OrigDataRate	OrigDataStartFrame	OrigNumFrames	
100.00	100.00	5	44	mm	100.00	1281	238	
Frame#	Time	LFHD			RFHD			LBHD			RBHD			C7			T10			CLAV			STRN			RBAK			LSHO			LUPA			LELB			LFRM			LWRA			LWRB			LFIN			RSHO			RUPA			RELB			RFRM			RWRA			RWRB			RFIN			LASI			RASI			LPSI			RPSI			LTHI			LKNE			LTIB			LANK			LHEE			LTOE			RTHI			RKNE			RTIB			RANK			RHEE			RTOE			*39			*40			*41			*42			*43			
		X1	Y1	Z1	X2	Y2	Z2	X3	Y3	Z3	X4	Y4	Z4	X5	Y5	Z5	X6	Y6	Z6	X7	Y7	Z7	X8	Y8	Z8	X9	Y9	Z9	X10	Y10	Z10	X11	Y11	Z11	X12	Y12	Z12	X13	Y13	Z13	X14	Y14	Z14	X15	Y15	Z15	X16	Y16	Z16	X17	Y17	Z17	X18	Y18	Z18	X19	Y19	Z19	X20	Y20	Z20	X21	Y21	Z21	X22	Y22	Z22	X23	Y23	Z23	X24	Y24	Z24	X25	Y25	Z25	X26	Y26	Z26	X27	Y27	Z27	X28	Y28	Z28	X29	Y29	Z29	X30	Y30	Z30	X31	Y31	Z31	X32	Y32	Z32	X33	Y33	Z33	X34	Y34	Z34	X35	Y35	Z35	X36	Y36	Z36	X37	Y37	Z37	X38	Y38	Z38	X39	Y39	Z39	X40	Y40	Z40	X41	Y41	Z41	X42	Y42	Z42	X43	Y43	Z43	X44	Y44	Z44	

1	0.000	-903.87756	1077.00317	1612.90295	-1035.85229	1091.68091	1622.01135	-894.80243	1207.71277	1577.88208	-1025.05627	1217.43164	1586.28406	-948.72107	1250.11951	1419.74133	-959.98773	1300.52527	1109.42493	-967.51575	1132.66760	1338.17944	-969.04364	1096.74146	1170.99390	-1038.82739	1323.92554	1248.84863	-807.73065	1154.23181	1374.71045	-735.81982	1132.35706	1181.42310	-727.63922	1103.10046	1061.34167	-739.74847	1051.04968	942.92188	-779.23877	1012.83887	833.24567	-724.03931	1024.69446	833.15906	-739.57318	989.02936	758.78223	-1118.88354	1200.29248	1366.25916	-1196.40112	1229.51392	1147.56030	-1214.65112	1225.62000	1035.50586	-1222.02136	1216.28003	899.20917	-1193.41858	1185.35815	802.41364	-1232.49951	1223.29700	799.38098	-1226.83704	1201.37830	727.88385	-854.51233	1139.19238	939.41260	-1092.98132	1142.84302	941.35522	-904.06531	1300.89600	968.83527	-1051.79211	1302.08728	970.23267	-829.91296	1222.66101	640.55750	-875.27338	1241.90637	465.50928	-882.46735	1314.28247	282.52026	-931.49414	1348.43848	73.68861	-968.84167	1390.40381	44.30332	-969.14014	1198.92883	28.86217	-1146.64673	1122.82336	654.49554	-1119.60364	1042.13782	493.35333	-1129.78955	1102.74927	310.70865	-1093.49512	1163.93286	102.27604	-1041.58337	1213.08533	74.36622	-1083.08875	1037.10229	44.06625	-942.87878	1159.22754	1683.01819												 
2	0.010	-904.52246	1067.89587	1612.26526	-1036.60059	1082.86719	1620.98291	-895.17676	1198.63196	1577.25220	-1025.50354	1208.57361	1585.31775	-949.02234	1241.17261	1418.97070	-961.53473	1291.93750	1108.74231	-967.75708	1123.76404	1337.36182	-969.16699	1087.96875	1170.09949	-1039.46533	1314.91772	1248.19189	-808.01807	1145.75696	1373.72986	-735.69690	1122.32959	1181.17358	-727.40045	1091.21179	1061.51538	-739.78717	1036.34204	944.51093	-779.97906	994.69476	836.42542	-725.06781	1007.41595	835.18842	-741.18652	969.76031	761.84216	-1119.23279	1191.16846	1365.75464	-1197.06250	1221.51880	1147.31299	-1215.35095	1218.17981	1035.25073	-1222.78870	1209.54077	898.95300	-1194.11719	1179.07190	802.02417	-1233.27429	1216.91675	799.09204	-1227.39380	1195.59473	727.45050	-854.78192	1131.51709	938.86963	-1093.50122	1132.97180	940.59058	-905.65076	1292.77234	968.21649	-1053.31763	1292.87927	969.25574	-830.67828	1216.40112	640.46375	-875.27600	1237.72522	465.51959	-882.45593	1312.26819	283.22513	-931.38940	1348.10925	74.40172	-968.80945	1390.19055	45.41781	-969.05127	1198.70947	28.60552	-1147.00464	1112.81909	653.64441	-1119.51025	1031.84753	492.80588	-1129.35681	1083.83447	307.47305	-1092.52551	1132.83679	96.23191	-1040.12476	1180.04675	65.81909	-1081.58411	1002.81226	44.05175	-943.24585	1150.13452	1682.05029												 
3	0.020	-905.21771	1058.84045	1611.49646	-1037.27344	1074.02222	1619.92029	-895.58521	1189.53699	1576.47485	-1025.96277	1199.78833	1584.24878	-949.38214	1232.06909	1418.02014	-963.16498	1283.26953	1107.96130	-968.02588	1114.71887	1336.39563	-969.34265	1079.12439	1168.84399	-1040.26514	1305.71875	1247.42993	-808.31268	1137.23547	1372.58728	-735.56891	1112.42029	1180.66736	-727.28760	1079.53345	1061.57544	-739.90228	1021.90637	946.10846	-780.78192	976.84192	839.61761	-726.13885	990.40167	837.24469	-742.88361	950.72296	764.95227	-1119.62939	1181.88354	1365.12939	-1197.69910	1213.40039	1146.97449	-1216.08984	1210.63879	1034.93103	-1223.56006	1202.61206	898.59161	-1194.77271	1172.63452	801.40265	-1234.07190	1210.46948	798.75543	-1227.91235	1189.57080	726.77612	-855.14960	1123.38074	938.32562	-1093.74548	1123.45776	939.52094	-907.23004	1284.53479	967.46490	-1054.92932	1283.58655	968.16400	-831.05084	1210.42627	640.37616	-875.17798	1233.31982	465.55679	-882.40485	1310.07080	283.91098	-931.22870	1347.85083	75.12344	-968.80798	1389.73987	46.25265	-968.98767	1198.53625	28.33091	-1147.34070	1103.47510	652.47473	-1119.47034	1022.19568	491.86313	-1128.76367	1065.33057	304.38629	-1090.60632	1101.17920	90.10178	-1038.07190	1146.79602	58.16763	-1080.03271	968.89685	44.54914	-944.25934	1141.17859	1681.42554												 
4	0.030	-905.86798	1049.73523	1610.58154	-1037.92224	1065.07764	1618.77405	-895.97412	1180.38416	1575.45032	-1026.23560	1190.74756	1582.94995	-949.86816	1222.97681	1417.01440	-964.86957	1274.52771	1107.06702	-968.26318	1105.56519	1335.27905	-969.54095	1070.24316	1167.84351	-1041.25891	1296.35669	1246.59253	-808.64099	1128.67517	1371.29590	-735.91907	1102.46887	1180.09656	-727.18939	1067.88843	1061.43408	-740.22284	1007.63977	947.52228	-781.70990	959.44617	842.79504	-727.32794	973.54169	839.23676	-744.62189	932.03094	768.09418	-1120.04309	1172.39148	1364.42163	-1198.37988	1205.16284	1146.58789	-1216.82922	1202.94067	1034.47754	-1224.34705	1195.53369	898.08350	-1195.64148	1166.00623	800.80383	-1234.84424	1203.87927	798.33551	-1228.57837	1183.48950	726.18420	-855.48547	1115.40234	937.53827	-1094.00208	1113.79626	938.21509	-908.72607	1276.13989	966.53558	-1056.46448	1274.18201	966.92010	-831.85016	1203.94885	640.11261	-875.03284	1228.70605	465.36673	-882.31439	1307.71533	284.50589	-931.26727	1347.52844	75.99198	-968.70093	1389.39490	47.19322	-968.83008	1198.42786	28.20719	-1147.63928	1094.80261	650.89105	-1119.34595	1013.14020	490.44202	-1127.94861	1047.25366	301.45596	-1088.83960	1070.10828	85.50544	-1035.80261	1113.60010	51.82692	-1078.57642	935.55640	45.52023	-945.13055	1132.27905	1680.42139												 
5	0.040	-906.55060	1040.56421	1609.57581	-1038.53711	1056.11780	1617.57727	-896.38550	1171.17761	1574.32507	-1026.63818	1181.72009	1581.60986	-950.40259	1213.75037	1415.85730	-966.60364	1265.69067	1106.05017	-968.54565	1096.32312	1334.04333	-969.64893	1061.23145	1166.59119	-1042.42065	1286.90637	1245.69922	-809.03339	1120.10291	1369.88916	-735.98022	1092.56287	1179.30762	-727.26526	1056.41553	1061.08740	-740.56702	993.57605	948.84167	-782.66858	942.40234	845.86786	-728.67310	957.05579	841.21472	-746.46295	913.58453	771.28387	-1120.48645	1162.71008	1363.57190	-1199.13855	1196.75964	1146.06799	-1217.64673	1195.12878	1033.92346	-1225.19666	1188.35046	897.51239	-1196.55042	1159.09241	800.03522	-1235.69128	1197.10266	797.76141	-1229.36292	1177.18188	725.30261	-855.87769	1107.19690	936.73700	-1094.30017	1104.08118	936.76697	-910.25153	1267.59290	965.49225	-1057.98218	1264.57214	965.49353	-831.46790	1197.99243	639.89215	-874.86713	1223.91919	465.19397	-882.20374	1305.12744	285.01813	-931.47327	1346.40332	76.39846	-968.65582	1389.25085	48.49392	-968.65393	1198.26343	28.11265	-1147.85925	1086.64709	648.85345	-1119.02161	1004.58447	488.61017	-1126.94189	1029.67615	298.76169	-1087.22156	1039.69202	82.02163	-1033.43054	1080.89392	46.83410	-1077.31091	902.98065	47.09249	-945.51385	1123.21130	1679.00818												 
